<?xml version="1.0" encoding="UTF-8"?>
<svg width="56px" height="48px" viewBox="0 0 56 48" version="1.1" xmlns="http://www.w3.org/2000/svg" xmlns:xlink="http://www.w3.org/1999/xlink">
    <!-- Generator: Sketch 60 (88103) - https://sketch.com -->
    <title>ico-front</title>
    <desc>Created with Sketch.</desc>
    <g id="Page-1" stroke="none" stroke-width="1" fill="none" fill-rule="evenodd">
        <g id="web-wow" transform="translate(-720.000000, -830.000000)">
            <g id="services" transform="translate(0.000000, 648.000000)">
                <g id="ui-copy" transform="translate(576.000000, 182.000000)">
                    <g id="ico-front" transform="translate(144.000000, 0.000000)">
                        <path d="M39.9131,25.4399 C40.7421,25.4399 41.4131,26.1119 41.4131,26.9399 C41.4131,27.7689 40.7421,28.4399 39.9131,28.4399 L38.1801,28.4399 C37.7861,28.4399 37.4651,28.7609 37.4651,29.1559 L37.4651,43.4539 C37.4651,43.8479 37.7861,44.1689 38.1801,44.1689 L39.9131,44.1689 C40.7421,44.1689 41.4131,44.8399 41.4131,45.6689 C41.4131,46.4979 40.7421,47.1689 39.9131,47.1689 L38.1801,47.1689 C36.1311,47.1689 34.4651,45.5019 34.4651,43.4539 L34.4651,29.1559 C34.4651,27.1069 36.1311,25.4399 38.1801,25.4399 L39.9131,25.4399 Z M51.9292,25.4399 C53.9782,25.4399 55.6452,27.1069 55.6452,29.1559 L55.6452,43.4539 C55.6452,45.5019 53.9782,47.1689 51.9292,47.1689 L50.1972,47.1689 C49.3682,47.1689 48.6972,46.4979 48.6972,45.6689 C48.6972,44.8399 49.3682,44.1689 50.1972,44.1689 L51.9292,44.1689 C52.3242,44.1689 52.6452,43.8479 52.6452,43.4539 L52.6452,29.1559 C52.6452,28.7609 52.3242,28.4399 51.9292,28.4399 L50.1972,28.4399 C49.3682,28.4399 48.6972,27.7689 48.6972,26.9399 C48.6972,26.1119 49.3682,25.4399 50.1972,25.4399 L51.9292,25.4399 Z" id="Fill-16" fill="#339FC2"></path>
                        <path d="M42.8108,0.0003 C46.2108,0.0003 48.9758,2.7653 48.9758,6.1653 L48.9758,21.8203 C48.9758,22.6493 48.3048,23.3203 47.4758,23.3203 C46.6478,23.3203 45.9758,22.6493 45.9758,21.8203 L45.9758,14.2893 L2.9998,14.2893 L2.9998,40.7803 C2.9998,42.5253 4.4198,43.9453 6.1648,43.9453 L29.4448,43.9453 C30.2738,43.9453 30.9448,44.6163 30.9448,45.4453 C30.9448,46.2743 30.2738,46.9453 29.4448,46.9453 L6.1648,46.9453 C2.7658,46.9453 -0.0002,44.1793 -0.0002,40.7803 L-0.0002,6.1653 C-0.0002,2.7653 2.7658,0.0003 6.1648,0.0003 L42.8108,0.0003 Z M13.8745,32.5156 C14.7035,32.5156 15.3745,33.1866 15.3745,34.0156 C15.3745,34.8446 14.7035,35.5156 13.8745,35.5156 L9.3505,35.5156 C8.5215,35.5156 7.8505,34.8446 7.8505,34.0156 C7.8505,33.1866 8.5215,32.5156 9.3505,32.5156 L13.8745,32.5156 Z M13.8745,25.4404 C14.7035,25.4404 15.3745,26.1114 15.3745,26.9404 C15.3745,27.7694 14.7035,28.4404 13.8745,28.4404 L9.3505,28.4404 C8.5215,28.4404 7.8505,27.7694 7.8505,26.9404 C7.8505,26.1114 8.5215,25.4404 9.3505,25.4404 L13.8745,25.4404 Z M23.5767,25.4404 C24.4057,25.4404 25.0767,26.1114 25.0767,26.9404 C25.0767,27.7694 24.4057,28.4404 23.5767,28.4404 L19.0527,28.4404 C18.2237,28.4404 17.5527,27.7694 17.5527,26.9404 C17.5527,26.1114 18.2237,25.4404 19.0527,25.4404 L23.5767,25.4404 Z M17.5693,18.3652 C18.3983,18.3652 19.0693,19.0362 19.0693,19.8652 C19.0693,20.6942 18.3983,21.3652 17.5693,21.3652 L8.5213,21.3652 C7.6923,21.3652 7.0213,20.6942 7.0213,19.8652 C7.0213,19.0362 7.6923,18.3652 8.5213,18.3652 L17.5693,18.3652 Z M29.6147,18.3652 C30.4437,18.3652 31.1147,19.0362 31.1147,19.8652 C31.1147,20.6942 30.4437,21.3652 29.6147,21.3652 L25.0907,21.3652 C24.2617,21.3652 23.5907,20.6942 23.5907,19.8652 C23.5907,19.0362 24.2617,18.3652 25.0907,18.3652 L29.6147,18.3652 Z M42.8108,3.0003 L6.1648,3.0003 C4.4198,3.0003 2.9998,4.4203 2.9998,6.1653 L2.9998,11.2893 L45.9758,11.2893 L45.9758,6.1653 C45.9758,4.4203 44.5558,3.0003 42.8108,3.0003 Z M13.7905,5.8789 C14.6195,5.8789 15.2905,6.5509 15.2905,7.3789 C15.2905,8.2079 14.6195,8.8789 13.7905,8.8789 C12.9615,8.8789 12.2905,8.2079 12.2905,7.3789 C12.2905,6.5509 12.9615,5.8789 13.7905,5.8789 Z M7.8501,5.8789 C8.6791,5.8789 9.3501,6.5509 9.3501,7.3789 C9.3501,8.2079 8.6791,8.8789 7.8501,8.8789 C7.0221,8.8789 6.3501,8.2079 6.3501,7.3789 C6.3501,6.5509 7.0221,5.8789 7.8501,5.8789 Z" id="Fill-23" fill="#3D3D3D"></path>
                    </g>
                </g>
            </g>
        </g>
    </g>
</svg>