<?xml version="1.0" encoding="UTF-8"?>
<svg width="49px" height="49px" viewBox="0 0 49 49" version="1.1" xmlns="http://www.w3.org/2000/svg" xmlns:xlink="http://www.w3.org/1999/xlink">
    <!-- Generator: Sketch 60 (88103) - https://sketch.com -->
    <title>ico-ui</title>
    <desc>Created with Sketch.</desc>
    <g id="Page-1" stroke="none" stroke-width="1" fill="none" fill-rule="evenodd">
        <g id="web-wow" transform="translate(-271.000000, -829.000000)">
            <g id="services" transform="translate(0.000000, 648.000000)">
                <g id="ui" transform="translate(123.000000, 181.000000)">
                    <g id="ico-ui" transform="translate(148.000000, 0.000000)">
                        <path d="M32.8745,29.6386 C31.1295,29.6386 29.7095,31.0586 29.7095,32.8046 L29.7095,42.1126 C29.7095,43.8576 31.1295,45.2776 32.8745,45.2776 L42.1825,45.2776 C43.9285,45.2776 45.3485,43.8576 45.3485,42.1126 L45.3485,32.8046 C45.3485,31.0586 43.9285,29.6386 42.1825,29.6386 L32.8745,29.6386 Z M42.1825,48.2776 L32.8745,48.2776 C29.4755,48.2776 26.7095,45.5126 26.7095,42.1126 L26.7095,32.8046 C26.7095,29.4046 29.4755,26.6386 32.8745,26.6386 L42.1825,26.6386 C45.5825,26.6386 48.3485,29.4046 48.3485,32.8046 L48.3485,42.1126 C48.3485,45.5126 45.5825,48.2776 42.1825,48.2776 L42.1825,48.2776 Z M32.8745,3 C31.1295,3 29.7095,4.42 29.7095,6.165 L29.7095,15.473 C29.7095,17.219 31.1295,18.639 32.8745,18.639 L42.1825,18.639 C43.9285,18.639 45.3485,17.219 45.3485,15.473 L45.3485,6.165 C45.3485,4.42 43.9285,3 42.1825,3 L32.8745,3 Z M42.1825,21.639 L32.8745,21.639 C29.4755,21.639 26.7095,18.873 26.7095,15.473 L26.7095,6.165 C26.7095,2.766 29.4755,1.13686838e-13 32.8745,1.13686838e-13 L42.1825,1.13686838e-13 C45.5825,1.13686838e-13 48.3485,2.766 48.3485,6.165 L48.3485,15.473 C48.3485,18.873 45.5825,21.639 42.1825,21.639 L42.1825,21.639 Z M6.165,29.6386 C4.42,29.6386 3,31.0586 3,32.8046 L3,42.1126 C3,43.8576 4.42,45.2776 6.165,45.2776 L15.474,45.2776 C17.219,45.2776 18.639,43.8576 18.639,42.1126 L18.639,32.8046 C18.639,31.0586 17.219,29.6386 15.474,29.6386 L6.165,29.6386 Z M15.474,48.2776 L6.165,48.2776 C2.766,48.2776 0,45.5126 0,42.1126 L0,32.8046 C0,29.4046 2.766,26.6386 6.165,26.6386 L15.474,26.6386 C18.873,26.6386 21.639,29.4046 21.639,32.8046 L21.639,42.1126 C21.639,45.5126 18.873,48.2776 15.474,48.2776 L15.474,48.2776 Z" id="Fill-8" fill="#3D3D3D"></path>
                        <path d="M6.165,3 C4.42,3 3,4.42 3,6.165 L3,15.473 C3,17.219 4.42,18.639 6.165,18.639 L15.474,18.639 C17.219,18.639 18.639,17.219 18.639,15.473 L18.639,6.165 C18.639,4.42 17.219,3 15.474,3 L6.165,3 Z M15.474,21.639 L6.165,21.639 C2.766,21.639 0,18.873 0,15.473 L0,6.165 C0,2.766 2.766,0 6.165,0 L15.474,0 C18.873,0 21.639,2.766 21.639,6.165 L21.639,15.473 C21.639,18.873 18.873,21.639 15.474,21.639 L15.474,21.639 Z" id="Fill-1" fill="#E350D4"></path>
                    </g>
                </g>
            </g>
        </g>
    </g>
</svg>