<?xml version="1.0" encoding="UTF-8"?>
<svg width="58px" height="47px" viewBox="0 0 58 47" version="1.1" xmlns="http://www.w3.org/2000/svg" xmlns:xlink="http://www.w3.org/1999/xlink">
    <!-- Generator: Sketch 60 (88103) - https://sketch.com -->
    <title>ico-brand</title>
    <desc>Created with Sketch.</desc>
    <g id="Page-1" stroke="none" stroke-width="1" fill="none" fill-rule="evenodd">
        <g id="web-wow" transform="translate(-1176.000000, -829.000000)">
            <g id="services" transform="translate(0.000000, 648.000000)">
                <g id="ui-copy-2" transform="translate(1032.000000, 181.000000)">
                    <g id="ico-brand" transform="translate(144.000000, 0.000000)">
                        <path d="M28.2549,14.7646 C25.8799,14.7646 23.9479,16.6966 23.9479,19.0716 C23.9479,21.4466 25.8799,23.3786 28.2549,23.3786 C30.6299,23.3786 32.5629,21.4466 32.5629,19.0716 C32.5629,16.6966 30.6299,14.7646 28.2549,14.7646 M28.2549,26.3786 C24.2259,26.3786 20.9479,23.1006 20.9479,19.0716 C20.9479,15.0426 24.2259,11.7646 28.2549,11.7646 C32.2839,11.7646 35.5629,15.0426 35.5629,19.0716 C35.5629,23.1006 32.2839,26.3786 28.2549,26.3786" id="Fill-1" fill="#FBC04D"></path>
                        <path d="M48.6318,31.563 L48.6318,17.931 C51.7628,18.62 54.1148,21.412 54.1148,24.747 C54.1148,28.082 51.7628,30.874 48.6318,31.563 L48.6318,31.563 Z M45.6318,40.78 C45.6318,42.525 44.2118,43.945 42.4668,43.945 L14.0438,43.945 C12.2978,43.945 10.8778,42.525 10.8778,40.78 L10.8778,6.165 C10.8778,4.42 12.2978,3 14.0438,3 L42.4668,3 C44.2118,3 45.6318,4.42 45.6318,6.165 L45.6318,40.78 Z M2.9998,24.747 C2.9998,21.63 5.0538,18.985 7.8778,18.09 L7.8778,31.404 C5.0538,30.509 2.9998,27.864 2.9998,24.747 L2.9998,24.747 Z M57.1148,24.747 C57.1148,19.754 53.4258,15.617 48.6318,14.89 L48.6318,6.165 C48.6318,2.766 45.8658,0 42.4668,0 L14.0438,0 C10.6438,0 7.8778,2.766 7.8778,6.165 L7.8778,14.992 C3.3818,15.962 -0.0002,19.965 -0.0002,24.747 C-0.0002,29.529 3.3818,33.532 7.8778,34.502 L7.8778,40.78 C7.8778,44.18 10.6438,46.945 14.0438,46.945 L42.4668,46.945 C45.8658,46.945 48.6318,44.18 48.6318,40.78 L48.6318,34.605 C53.4258,33.877 57.1148,29.74 57.1148,24.747 L57.1148,24.747 Z M34.8018,34.9917 L21.7078,34.9917 C20.8088,34.9917 20.0768,34.2607 20.0768,33.3607 C20.0768,32.4617 20.8088,31.7297 21.7078,31.7297 L34.8018,31.7297 C35.7008,31.7297 36.4338,32.4617 36.4338,33.3607 C36.4338,34.2607 35.7008,34.9917 34.8018,34.9917 M34.8018,28.7297 L21.7078,28.7297 C19.1548,28.7297 17.0768,30.8067 17.0768,33.3607 C17.0768,35.9137 19.1548,37.9917 21.7078,37.9917 L34.8018,37.9917 C37.3558,37.9917 39.4338,35.9137 39.4338,33.3607 C39.4338,30.8067 37.3558,28.7297 34.8018,28.7297" id="Fill-5" fill="#3D3D3D"></path>
                    </g>
                </g>
            </g>
        </g>
    </g>
</svg>