<?xml version="1.0" encoding="utf-8"?>
<!-- Generator: Adobe Illustrator 23.1.1, SVG Export Plug-In . SVG Version: 6.00 Build 0)  -->
<svg version="1.1" id="Layer_1" xmlns="http://www.w3.org/2000/svg" xmlns:xlink="http://www.w3.org/1999/xlink" x="0px" y="0px"
	 viewBox="0 0 563 95.4" style="enable-background:new 0 0 563 95.4;" xml:space="preserve">
<style type="text/css">
	.st0{fill:#FBDE53;}
	.st1{fill:#FC59EC;}
	.st2{fill:#39B1D8;}
	.st3{fill:#C94CE6;}
	.st4{fill:#FBC04E;}
	.st5{fill:#E450D5;}
	.st6{fill:#B652EB;}
	.st7{fill:#E1C84A;}
	.st8{fill:#33A0C2;}
	.st9{fill:#383838;}
</style>
<polygon class="st0" points="108.5,29.3 71.5,22.8 71.5,22.8 71.5,22.8 71.5,22.8 62,37.4 62,37.4 70.6,50.2 55.4,47.5 55.4,47.5 
	48.1,58.7 45.9,62 45.9,62 66.8,93.2 76.2,78.7 67.7,65.9 82.9,68.5 92.3,54 92.3,54 92.3,54 83.8,41.2 99,43.9 "/>
<polygon class="st1" points="94.1,2.9 76.8,2.9 70.4,17.8 63.5,2.9 47.3,2.9 40.5,17.8 34.1,2.9 16.7,2.9 31.4,37.4 31.4,37.4 
	31.4,37.4 48.8,37.4 48.8,37.4 48.8,37.4 55.4,21.9 62,37.4 62,37.4 62,37.4 79.4,37.4 79.4,37.4 79.4,37.4 "/>
<polygon class="st2" points="64.9,62 62.8,58.7 55.4,47.5 55.4,47.5 40.3,50.2 48.8,37.4 48.8,37.4 39.3,22.8 39.3,22.8 39.3,22.8 
	39.3,22.8 2.4,29.3 11.9,43.9 27,41.2 18.5,54 28,68.5 28,68.5 28,68.5 43.2,65.9 34.6,78.7 44.1,93.2 64.9,62 "/>
<polygon class="st3" points="48.8,37.4 39.3,22.8 26.2,25.1 31.4,37.4 "/>
<polygon class="st4" points="71.5,22.8 62,37.4 79.4,37.4 84.6,25.1 "/>
<polygon class="st5" points="47.3,2.9 55.4,21.9 63.5,2.9 "/>
<polygon class="st6" points="45.8,61.9 55.4,76.2 65,61.9 55.4,47.5 "/>
<polygon class="st7" points="70.6,50.2 82.9,68.5 92.3,54 "/>
<polygon class="st8" points="40.3,50.2 28,68.5 18.5,54 "/>
<path class="st9" d="M508.5,26.4c-4.9,0-9.5,2.1-13.1,5.5V20h-13.6v56.6h13.6v-4.1c3.6,3.4,8.1,5.5,13.1,5.5
	c11.7,0,21.2-11.5,21.2-25.8C529.7,38,520.2,26.4,508.5,26.4z M505.1,66.6c-5.8,0-10.6-6.4-10.6-14.2s4.7-14.2,10.6-14.2
	c5.8,0,10.6,6.4,10.6,14.2S510.9,66.6,505.1,66.6z"/>
<path class="st9" d="M473,54.9c0.1-0.9,0.1-1.8,0.1-2.7c0-16.6-11.1-25.8-23.5-25.8h-2.2c-12.4,0-23.5,9.2-23.5,25.8
	c0,17.5,10,25.8,23.5,25.8h2.2c10.1,0,18.2-4.7,21.7-14.3l-10-5c-3.1,6.9-7.5,8.2-12.8,8.2c-6,0-9.9-3.9-10.8-11.9H473z M448.5,36.3
	c3.8,0,8.7,2.1,10.4,9.6h-20.8C439.7,38.4,444.7,36.3,448.5,36.3z"/>
<path class="st9" d="M352.1,54.9c0.1-0.9,0.1-1.8,0.1-2.7c0-16.6-11.1-25.8-23.5-25.8h-2.2c-12.4,0-23.5,9.2-23.5,25.8
	c0,17.5,10,25.8,23.5,25.8h2.2c10.1,0,18.2-4.7,21.7-14.3l-10-5c-3.1,6.9-7.5,8.2-12.8,8.2c-6,0-9.9-3.9-10.8-11.9H352.1z
	 M327.6,36.3c3.8,0,8.7,2.1,10.4,9.6h-20.8C318.9,38.4,323.8,36.3,327.6,36.3z"/>
<path class="st9" d="M207.9,26.4h-2.2c-12.4,0-23.5,9.2-23.5,25.8c0,17.5,10,25.8,23.5,25.8h2.2c13.5,0,23.5-8.3,23.5-25.8
	C231.3,35.6,220.2,26.4,207.9,26.4z M206.7,66.8c-6.7,0-10.9-5-10.9-15.2c0-12.2,6.3-15.2,10.9-15.2c4.6,0,10.9,3.1,10.9,15.2
	C217.7,61.8,213.5,66.8,206.7,66.8z"/>
<polygon class="st9" points="166.3,27.8 158.9,53 151.9,27.8 151.9,27.8 140.3,27.8 140.3,27.8 133.3,53 125.9,27.8 112.2,27.8 
	127.2,76.6 140.8,76.6 146.1,50.3 151.4,76.6 165,76.6 179.9,27.8 "/>
<polygon class="st9" points="287.4,27.8 280,53 273,27.8 273,27.8 261.4,27.8 261.4,27.8 254.4,53 247,27.8 233.3,27.8 248.3,76.6 
	261.9,76.6 267.2,50.3 272.4,76.6 286.1,76.6 301,27.8 "/>
<polygon class="st9" points="408.2,27.8 400.8,53 393.9,27.8 393.8,27.8 382.2,27.8 382.2,27.8 375.2,53 367.8,27.8 354.2,27.8 
	369.1,76.6 382.8,76.6 388,50.3 393.3,76.6 407,76.6 421.9,27.8 "/>
</svg>
